General
Complete name                    : The.Tattooed.Widow.aka.Den.tatuerade.änkan.avi
Format                           : AVI
File size                        : 704 MiB
Duration                         : 1h 38mn
Overall bit rate                 : 995 Kbps

Video

Format                           : MPEG-4 Visual
Codec ID/Hint                    : XviD
Duration                         : 1h 38mn
Bit rate                         : 870 Kbps
Width                            : 700 pixels
Height                           : 452 pixels
Display aspect ratio             : 1.652
Stream size                      : 615 MiB (87%)
Writing library                  : XviD 1.1.2 (UTC 2006-11-01)

Audio

Format                           : MPEG Audio
Codec ID/Hint                    : MP3
Duration                         : 1h 38mn
Bit rate                         : 112 Kbps
Channel(s)                       : 2 channels
Sampling rate                    : 48.0 KHz
Stream size                      : 79.2 MiB (11%)
Writing library                  : LAME3.98

